<?xml version="1.0" encoding="utf-8"?>
<!-- Generator: Adobe Illustrator 27.9.0, SVG Export Plug-In . SVG Version: 6.00 Build 0)  -->
<svg version="1.1" id="レイヤー_1" xmlns="http://www.w3.org/2000/svg" xmlns:xlink="http://www.w3.org/1999/xlink" x="0px"
	 y="0px" viewBox="0 0 511 150" style="enable-background:new 0 0 511 150;" xml:space="preserve">
<style type="text/css">
	.st0{fill:#FFBB00;stroke:#1B1464;stroke-miterlimit:10;}
</style>
<g>
	<path class="st0" d="M57,85.3v-21c4.8,0,7.2-1.8,7.2-5.5c0-3.4-1.8-5-5.5-5c-3.7,0-5.6,2.3-5.6,6.9V113H29.4V63.2
		c0-5.2,0.5-9.4,1.6-12.7c1-3.3,2.8-6.4,5.3-9.2c2.8-3.2,6.3-5.7,10.5-7.5C51,31.9,55.4,31,59.9,31c8.1,0,15,2.7,20.5,8.2
		c5.5,5.5,8.3,12.2,8.3,20.3c0,7.9-2.5,14.2-7.4,19.1c-4.5,4.5-11.4,6.7-20.5,6.7L57,85.3z"/>
	<path class="st0" d="M124.5,53.4c8.3,0,15.4,3,21.3,8.9c5.9,6,8.9,13.1,8.9,21.4c0,8.4-3,15.6-9,21.6c-6,5.9-13.2,8.9-21.7,8.9
		c-8.5,0-15.7-3-21.7-8.9c-6-6-9-13.1-9-21.5c0-8.6,3-15.8,9-21.6C108.3,56.3,115.7,53.4,124.5,53.4z M124,75c-2.3,0-4.3,0.8-6,2.5
		s-2.5,3.8-2.5,6.2c0,2.4,0.8,4.5,2.5,6.2c1.7,1.7,3.6,2.6,5.9,2.6c2.3,0,4.3-0.9,6-2.6c1.7-1.7,2.5-3.8,2.5-6.2
		c0-2.5-0.8-4.5-2.5-6.2S126.3,75,124,75z"/>
	<path class="st0" d="M195.9,54v23.4c-1.5-0.9-2.9-1.3-4.2-1.3c-4,0-6,3-6,9.1V113h-21.9V81.1c0-8.4,2.3-15.2,6.9-20.2
		c4.6-5,10.8-7.5,18.5-7.5C190.9,53.4,193.2,53.6,195.9,54z"/>
	<path class="st0" d="M221.9,33v22.4h9.8v23.1h-9.8c0,4.6,0.7,7.9,2.2,9.6s4.1,2.6,8.1,2.6v23c-1.1,0-2,0.1-2.5,0.1
		c-5,0-9.6-1.2-14-3.5c-4.4-2.3-7.9-5.4-10.6-9.4c-3.4-5-5-11.7-5-20V33H221.9z"/>
	<path class="st0" d="M274.2,67.5v23h-9.8V113h-21.9V63.4c0-5.6,1-10.4,2.9-14.3c2.4-5,6.1-9.1,11-12.3c4.9-3.2,10.1-4.8,15.4-4.8
		l2.3,0.1v23c-0.5,0-0.9-0.1-1.1-0.1c-2.8,0-4.9,0.9-6.4,2.8c-1.5,1.8-2.3,4.5-2.3,7.9v2H274.2z"/>
	<path class="st0" d="M311.5,53.4c8.3,0,15.4,3,21.3,8.9c5.9,6,8.9,13.1,8.9,21.4c0,8.4-3,15.6-9,21.6c-6,5.9-13.2,8.9-21.7,8.9
		c-8.5,0-15.7-3-21.7-8.9c-6-6-9-13.1-9-21.5c0-8.6,3-15.8,9-21.6C295.3,56.3,302.7,53.4,311.5,53.4z M310.9,75
		c-2.3,0-4.3,0.8-6,2.5s-2.5,3.8-2.5,6.2c0,2.4,0.8,4.5,2.5,6.2c1.7,1.7,3.6,2.6,5.9,2.6c2.3,0,4.3-0.9,6-2.6
		c1.7-1.7,2.5-3.8,2.5-6.2c0-2.5-0.8-4.5-2.5-6.2S313.3,75,310.9,75z"/>
	<path class="st0" d="M372.7,33v80h-21.9V33H372.7z"/>
	<path class="st0" d="M407.5,54.6V113h-21.9V54.6H407.5z M396.6,28.5c3,0,5.5,1,7.7,3.1c2.2,2.1,3.3,4.6,3.3,7.4c0,3-1,5.5-3.1,7.5
		c-2.1,2-4.7,2.9-7.9,2.9c-3.2,0-5.8-1-7.9-2.9c-2.1-2-3.1-4.5-3.1-7.5c0-2.9,1.1-5.3,3.3-7.4C391.1,29.6,393.6,28.5,396.6,28.5z"/>
	<path class="st0" d="M448.1,53.4c8.3,0,15.4,3,21.3,8.9c5.9,6,8.9,13.1,8.9,21.4c0,8.4-3,15.6-9,21.6c-6,5.9-13.2,8.9-21.7,8.9
		c-8.5,0-15.7-3-21.7-8.9c-6-6-9-13.1-9-21.5c0-8.6,3-15.8,9-21.6C431.8,56.3,439.3,53.4,448.1,53.4z M447.5,75
		c-2.3,0-4.3,0.8-6,2.5s-2.5,3.8-2.5,6.2c0,2.4,0.8,4.5,2.5,6.2c1.7,1.7,3.6,2.6,5.9,2.6c2.3,0,4.3-0.9,6-2.6
		c1.7-1.7,2.5-3.8,2.5-6.2c0-2.5-0.8-4.5-2.5-6.2S449.9,75,447.5,75z"/>
</g>
</svg>
